<mxfile host="app.diagrams.net" modified="2024-05-20T09:18:57.099Z" agent="Mozilla/5.0 (Macintosh; Intel Mac OS X 10_15_7) AppleWebKit/605.1.15 (KHTML, like Gecko) Version/17.5 Safari/605.1.15" etag="3qdpB1Eb4w7YCqs_OqJQ" version="24.4.4" type="github">
  <diagram name="Страница — 1" id="xBI4O_4jDSm0rR-R8gS1">
    <mxGraphModel dx="1194" dy="797" grid="1" gridSize="10" guides="1" tooltips="1" connect="1" arrows="1" fold="1" page="1" pageScale="1" pageWidth="827" pageHeight="1169" math="0" shadow="0">
      <root>
        <mxCell id="0" />
        <mxCell id="1" parent="0" />
        <mxCell id="faCQ3-sYlgc5fyGd1z7K-5" style="edgeStyle=orthogonalEdgeStyle;rounded=0;orthogonalLoop=1;jettySize=auto;html=1;" edge="1" parent="1" source="faCQ3-sYlgc5fyGd1z7K-1" target="faCQ3-sYlgc5fyGd1z7K-3">
          <mxGeometry relative="1" as="geometry" />
        </mxCell>
        <mxCell id="faCQ3-sYlgc5fyGd1z7K-1" value="App" style="ellipse;whiteSpace=wrap;html=1;" vertex="1" parent="1">
          <mxGeometry x="340" y="150" width="120" height="80" as="geometry" />
        </mxCell>
        <mxCell id="faCQ3-sYlgc5fyGd1z7K-10" value="" style="edgeStyle=orthogonalEdgeStyle;rounded=0;orthogonalLoop=1;jettySize=auto;html=1;" edge="1" parent="1" source="faCQ3-sYlgc5fyGd1z7K-2" target="faCQ3-sYlgc5fyGd1z7K-9">
          <mxGeometry relative="1" as="geometry" />
        </mxCell>
        <mxCell id="faCQ3-sYlgc5fyGd1z7K-2" value="Solar Home Page" style="ellipse;whiteSpace=wrap;html=1;" vertex="1" parent="1">
          <mxGeometry x="240" y="290" width="120" height="80" as="geometry" />
        </mxCell>
        <mxCell id="faCQ3-sYlgc5fyGd1z7K-14" value="" style="edgeStyle=orthogonalEdgeStyle;rounded=0;orthogonalLoop=1;jettySize=auto;html=1;" edge="1" parent="1" source="faCQ3-sYlgc5fyGd1z7K-3" target="faCQ3-sYlgc5fyGd1z7K-13">
          <mxGeometry relative="1" as="geometry" />
        </mxCell>
        <mxCell id="faCQ3-sYlgc5fyGd1z7K-3" value="Planet" style="ellipse;whiteSpace=wrap;html=1;" vertex="1" parent="1">
          <mxGeometry x="440" y="290" width="120" height="80" as="geometry" />
        </mxCell>
        <mxCell id="faCQ3-sYlgc5fyGd1z7K-4" style="edgeStyle=orthogonalEdgeStyle;rounded=0;orthogonalLoop=1;jettySize=auto;html=1;entryX=0.558;entryY=-0.037;entryDx=0;entryDy=0;entryPerimeter=0;" edge="1" parent="1" source="faCQ3-sYlgc5fyGd1z7K-1" target="faCQ3-sYlgc5fyGd1z7K-2">
          <mxGeometry relative="1" as="geometry" />
        </mxCell>
        <mxCell id="faCQ3-sYlgc5fyGd1z7K-12" value="" style="edgeStyle=orthogonalEdgeStyle;rounded=0;orthogonalLoop=1;jettySize=auto;html=1;" edge="1" parent="1" source="faCQ3-sYlgc5fyGd1z7K-9" target="faCQ3-sYlgc5fyGd1z7K-11">
          <mxGeometry relative="1" as="geometry" />
        </mxCell>
        <mxCell id="faCQ3-sYlgc5fyGd1z7K-9" value="PlanetList Component" style="ellipse;whiteSpace=wrap;html=1;" vertex="1" parent="1">
          <mxGeometry x="240" y="410" width="120" height="80" as="geometry" />
        </mxCell>
        <mxCell id="faCQ3-sYlgc5fyGd1z7K-11" value="Planet&amp;nbsp;&lt;div&gt;Component&lt;/div&gt;" style="ellipse;whiteSpace=wrap;html=1;" vertex="1" parent="1">
          <mxGeometry x="240" y="530" width="120" height="80" as="geometry" />
        </mxCell>
        <mxCell id="faCQ3-sYlgc5fyGd1z7K-17" value="" style="edgeStyle=orthogonalEdgeStyle;rounded=0;orthogonalLoop=1;jettySize=auto;html=1;" edge="1" parent="1" source="faCQ3-sYlgc5fyGd1z7K-13" target="faCQ3-sYlgc5fyGd1z7K-15">
          <mxGeometry relative="1" as="geometry" />
        </mxCell>
        <mxCell id="faCQ3-sYlgc5fyGd1z7K-18" value="" style="edgeStyle=orthogonalEdgeStyle;rounded=0;orthogonalLoop=1;jettySize=auto;html=1;" edge="1" parent="1" source="faCQ3-sYlgc5fyGd1z7K-13" target="faCQ3-sYlgc5fyGd1z7K-15">
          <mxGeometry relative="1" as="geometry" />
        </mxCell>
        <mxCell id="faCQ3-sYlgc5fyGd1z7K-19" value="" style="edgeStyle=orthogonalEdgeStyle;rounded=0;orthogonalLoop=1;jettySize=auto;html=1;" edge="1" parent="1" source="faCQ3-sYlgc5fyGd1z7K-13" target="faCQ3-sYlgc5fyGd1z7K-15">
          <mxGeometry relative="1" as="geometry" />
        </mxCell>
        <mxCell id="faCQ3-sYlgc5fyGd1z7K-22" value="" style="edgeStyle=orthogonalEdgeStyle;rounded=0;orthogonalLoop=1;jettySize=auto;html=1;" edge="1" parent="1" source="faCQ3-sYlgc5fyGd1z7K-13" target="faCQ3-sYlgc5fyGd1z7K-21">
          <mxGeometry relative="1" as="geometry" />
        </mxCell>
        <mxCell id="faCQ3-sYlgc5fyGd1z7K-13" value="PlanetInfo&lt;div&gt;Component&lt;/div&gt;" style="ellipse;whiteSpace=wrap;html=1;" vertex="1" parent="1">
          <mxGeometry x="440" y="410" width="120" height="80" as="geometry" />
        </mxCell>
        <mxCell id="faCQ3-sYlgc5fyGd1z7K-15" value="PlanetBakgrColor = Planet Component" style="ellipse;whiteSpace=wrap;html=1;" vertex="1" parent="1">
          <mxGeometry x="530" y="545" width="120" height="80" as="geometry" />
        </mxCell>
        <mxCell id="faCQ3-sYlgc5fyGd1z7K-21" value="PlanetDetails&lt;div&gt;Component&lt;/div&gt;" style="ellipse;whiteSpace=wrap;html=1;" vertex="1" parent="1">
          <mxGeometry x="400" y="545" width="120" height="80" as="geometry" />
        </mxCell>
        <mxCell id="faCQ3-sYlgc5fyGd1z7K-23" value="&lt;b&gt;&lt;font style=&quot;font-size: 18px;&quot;&gt;SolSystem TS App&lt;/font&gt;&lt;/b&gt;" style="text;html=1;align=center;verticalAlign=middle;resizable=0;points=[];autosize=1;strokeColor=none;fillColor=none;" vertex="1" parent="1">
          <mxGeometry x="60" y="175" width="180" height="30" as="geometry" />
        </mxCell>
      </root>
    </mxGraphModel>
  </diagram>
</mxfile>
